# xmcd
#
# Track frame offsets:
#	150
#	18203
#	30567
#	42963
#	55100
#	65550
#	75393
#	92264
#	103429
#	115889
#
# Disc length: 1879 seconds
#
# Revision: 1
# Processed by: cddbd v1.5.2PL0 Copyright (c) Steve Scherf et al.
# Submitted via: audiograbber 1.83.01
#
DISCID=7307550a
DTITLE=William Elliot Whitmore - Kilonova
DYEAR=2018
DGENRE=
TTITLE0=Fear of Trains
TTITLE1=Busted
TTITLE2=Don't Pray on Me
TTITLE3=Hot Blue and Rightous
TTITLE4=Five Feet High and Rising
TTITLE5=Ain't No Sunshine
TTITLE6=One Glass at a Time
TTITLE7=Run Johnny Run
TTITLE8=Country Blues
TTITLE9=Bat Chain Puller
EXTD=
EXTT0=
EXTT1=
EXTT2=
EXTT3=
EXTT4=
EXTT5=
EXTT6=
EXTT7=
EXTT8=
EXTT9=
PLAYORDER=
